<svg width="60" height="58.789" viewBox="0 0 60 58.789" fill="none" xmlns="http://www.w3.org/2000/svg"><path d="M4.553 21.051c0.534 0.257 1.071 0.771 1.875 0.771h0.534c0.268 0 0.534 -0.257 0.534 -0.257 0.268 0 0.534 -0.257 0.804 -0.514L12.053 17.456c0.534 -0.514 0.804 -1.028 0.804 -1.539 0 -0.514 -0.268 -1.284 -0.804 -1.539 -1.071 -1.028 -2.409 -1.028 -3.214 -0.514v-6.675c0 -0.771 0.534 -1.284 0.804 -2.053a1.485 1.485 0 0 1 1.339 -0.771h16.071c1.339 0 2.411 -0.771 2.411 -2.053C29.466 1.028 28.393 0 27.053 0H10.982c-1.875 0 -3.75 0.771 -5.357 2.053 -1.073 1.539 -1.607 3.594 -1.607 5.136v6.932a2.912 2.912 0 0 0 -3.482 0C0.268 14.633 0 15.146 0 15.915c0 0.514 0.268 1.284 0.804 1.539l3.752 3.594Zm50.625 16.431c-0.268 -0.257 -1.071 -0.771 -1.607 -0.771h-0.534c-0.268 0 -0.534 0 -0.804 0.257 -0.268 0 -0.268 0.257 -0.534 0.257l-4.018 3.594c-1.071 1.028 -1.071 2.308 0 3.337 1.073 1.028 2.411 1.028 3.214 0v7.444c0 0.771 -0.268 1.284 -0.804 2.053a2.957 2.957 0 0 1 -1.875 0.771h-9.639c-1.339 0 -2.143 1.028 -2.143 2.308s1.073 2.055 2.411 2.055h9.643c1.875 0 3.482 -0.771 5.091 -2.053 1.071 -1.539 1.875 -3.337 1.875 -4.877v-7.704l0.268 0.257c1.071 1.028 2.409 1.028 3.482 0 0.534 -0.514 0.804 -1.028 0.804 -1.539 0 -0.514 -0.268 -1.284 -0.804 -1.539l-4.018 -3.851Z" fill="#6CD8A3"/><path d="M51.339 3.636c0.763 0 1.386 0.643 1.386 1.429v17.145a1.408 1.408 0 0 1 -1.386 1.427h-16.62a1.408 1.408 0 0 1 -1.386 -1.427V5.064c0 -0.786 0.623 -1.429 1.386 -1.429h16.624Zm0 17.857v-15.713c0 -0.429 -0.277 -0.714 -0.692 -0.714h-15.236c-0.416 0 -0.692 0.285 -0.692 0.714v15.714c0 0.429 0.277 0.714 0.692 0.714h15.238c0.416 0 0.692 -0.285 0.692 -0.714Zm-12.186 -15.028h0.731v6.114h-0.971V7.672a3.328 3.328 0 0 1 -1.354 0.746v-0.996a3.431 3.431 0 0 0 1.596 -0.96h-0.002Zm7.582 -0.12c0.574 0 1.048 0.171 1.421 0.514a1.729 1.729 0 0 1 0.549 1.327c0 0.531 -0.201 1.011 -0.581 1.448 -0.232 0.257 -0.649 0.581 -1.228 0.984 -0.606 0.411 -0.971 0.771 -1.106 1.078h2.927v0.883h-4.14c0 -0.624 0.191 -1.164 0.591 -1.627 0.216 -0.257 0.673 -0.634 1.363 -1.119a5.52 5.52 0 0 0 0.814 -0.684 1.476 1.476 0 0 0 0.388 -0.969c0 -0.334 -0.092 -0.581 -0.261 -0.744 -0.174 -0.163 -0.431 -0.24 -0.772 -0.24 -0.366 0 -0.639 0.129 -0.823 0.384 -0.182 0.24 -0.283 0.609 -0.298 1.087h-0.973c0.009 -0.684 0.201 -1.234 0.581 -1.652 0.388 -0.446 0.906 -0.667 1.545 -0.667Zm-6.934 8.184c0.598 0 1.089 0.146 1.455 0.446 0.358 0.3 0.54 0.711 0.54 1.241 0 0.667 -0.332 1.112 -0.992 1.335a1.659 1.659 0 0 1 0.806 0.497 1.329 1.329 0 0 1 0.3 0.891 1.821 1.821 0 0 1 -0.574 1.387c-0.399 0.367 -0.922 0.557 -1.571 0.557 -0.615 0 -1.114 -0.163 -1.489 -0.488 -0.416 -0.36 -0.649 -0.891 -0.698 -1.575h0.992c0.017 0.394 0.133 0.703 0.366 0.917 0.208 0.197 0.482 0.3 0.823 0.3a1.215 1.215 0 0 0 0.889 -0.324 1.003 1.003 0 0 0 0.291 -0.729c0 -0.351 -0.109 -0.608 -0.307 -0.771 -0.201 -0.171 -0.491 -0.249 -0.872 -0.249h-0.416v-0.754h0.416c0.349 0 0.615 -0.077 0.799 -0.231 0.174 -0.154 0.266 -0.386 0.266 -0.684 0 -0.3 -0.082 -0.523 -0.24 -0.677 -0.174 -0.154 -0.431 -0.231 -0.772 -0.231 -0.349 0 -0.615 0.086 -0.806 0.266 -0.201 0.18 -0.315 0.454 -0.349 0.819h-0.954c0.051 -0.617 0.266 -1.095 0.666 -1.438 0.373 -0.343 0.857 -0.506 1.438 -0.506Zm7.433 0.12h0.889v4.009h0.879v0.797h-0.879v1.311h-0.922v-1.311h-2.869v-0.951l2.901 -3.853Zm-0.058 1.268L45.124 18.656h2.078V15.917h-0.024Z" fill="#6CD8A3"/><path d="M24.771 58.789H4.928A4.931 4.931 0 0 1 0 53.859V34.018a4.931 4.931 0 0 1 4.928 -4.928h19.843a4.931 4.931 0 0 1 4.926 4.928v12.328a1.119 1.119 0 1 1 -2.239 0v-12.328a2.691 2.691 0 0 0 -2.689 -2.689H4.928a2.691 2.691 0 0 0 -2.687 2.689v19.843a2.691 2.691 0 0 0 2.687 2.689h19.843a2.691 2.691 0 0 0 2.689 -2.689v-1.622a1.119 1.119 0 0 1 2.239 0v1.622a4.931 4.931 0 0 1 -4.928 4.928Zm-7.965 -8.955a1.119 1.119 0 0 1 -1.119 -1.119v-8.209a1.215 1.215 0 0 1 2.205 -0.701v3.414h3.726v-3.011a1.119 1.119 0 0 1 2.239 0v8.057a1.213 1.213 0 0 1 -1.599 1.151c-0.246 -0.082 -0.508 -0.208 -0.606 -0.448 -0.097 -0.24 -0.036 -0.703 -0.036 -0.703V45.375H17.889l0.032 3.337a1.119 1.119 0 0 1 -1.117 1.119v0.002Z" fill="#6CD8A3"/><path d="M6.482 48.943v-1.583l4.549 -5.578H7.011v-1.483h6.308v1.357l-4.725 5.829h4.899v0.703l1.08 0.754H6.482Z" fill="#1AFA29"/></svg>
